<?xml version="1.0" standalone="no"?>
<!DOCTYPE svg PUBLIC "-//W3C//DTD SVG 20010904//EN"
 "http://www.w3.org/TR/2001/REC-SVG-20010904/DTD/svg10.dtd">
<svg version="1.0" xmlns="http://www.w3.org/2000/svg"
 width="260.000000pt" height="260.000000pt" viewBox="0 0 260.000000 260.000000"
 preserveAspectRatio="xMidYMid meet">
<metadata>
Created by potrace 1.14, written by Peter Selinger 2001-2017
</metadata>
<g transform="translate(0.000000,260.000000) scale(0.100000,-0.100000)"
fill="#000000" stroke="none">
<path d="M428 2584 c-2 -2 -45 -4 -94 -5 -68 -2 -91 -6 -91 -16 0 -7 4 -13 8
-13 4 0 5 -10 1 -22 -3 -14 -2 -19 6 -14 8 4 12 0 12 -12 0 -10 9 -28 20 -40
11 -12 20 -26 20 -32 0 -6 7 -13 16 -17 9 -3 13 -12 9 -21 -3 -9 -3 -13 1 -10
4 4 20 -7 37 -25 16 -18 35 -30 41 -29 6 2 8 0 3 -4 -4 -4 0 -15 9 -25 18 -20
8 -48 -28 -73 -12 -9 -19 -16 -15 -16 4 0 -1 -9 -10 -19 -9 -11 -20 -18 -24
-15 -4 2 -10 -4 -14 -15 -3 -10 -14 -29 -25 -41 -11 -12 -17 -27 -14 -31 3 -5
0 -9 -5 -9 -6 0 -11 -5 -11 -11 0 -7 -8 -18 -17 -26 -10 -8 -12 -11 -4 -8 9 5
8 0 -4 -18 -9 -15 -13 -32 -9 -38 4 -8 3 -9 -4 -5 -25 15 -44 -138 -28 -229 9
-57 27 -118 36 -130 4 -5 6 -18 5 -27 -2 -10 1 -18 6 -18 5 0 9 -4 9 -9 0 -10
-38 -24 -57 -22 -8 1 -10 -5 -7 -14 4 -9 3 -15 -2 -14 -5 1 -16 1 -24 0 -12
-1 -12 -3 -2 -10 8 -4 13 -11 13 -15 -4 -29 1 -56 9 -51 6 3 10 -1 10 -9 0 -9
8 -16 17 -16 9 0 13 -3 10 -7 -4 -3 6 -13 21 -21 29 -15 29 -15 84 -26 21 -5
36 -12 33 -16 -3 -4 2 -10 10 -14 8 -3 13 -11 10 -18 -6 -17 16 -44 38 -46 9
-1 24 -3 32 -4 8 -1 23 -10 32 -21 13 -15 14 -18 3 -12 -9 5 -8 0 4 -13 11
-12 15 -22 10 -22 -5 0 2 -7 14 -16 12 -8 22 -22 22 -30 0 -13 12 -18 33 -15
4 0 7 -4 7 -9 0 -6 5 -10 10 -10 6 0 10 7 10 15 0 8 -3 15 -7 15 -5 0 -9 11
-9 25 -2 22 2 25 28 23 16 -1 32 -7 35 -12 4 -5 0 -6 -8 -2 -8 4 -5 0 6 -9 11
-9 19 -21 17 -27 -2 -6 3 -8 11 -5 7 2 21 -1 30 -8 16 -11 14 -14 -18 -29 -19
-9 -35 -21 -35 -27 0 -6 -5 -7 -10 -4 -6 3 -13 0 -16 -9 -3 -8 -12 -17 -20
-20 -10 -4 -13 -1 -9 7 4 6 0 4 -8 -5 -8 -10 -17 -15 -20 -11 -4 3 -7 1 -7 -6
0 -7 -4 -9 -10 -6 -9 5 -14 -7 -12 -26 1 -4 -8 -4 -20 -1 -14 3 -19 1 -14 -6
4 -7 1 -12 -8 -12 -9 0 -16 -5 -16 -11 0 -5 -4 -7 -10 -4 -5 3 -10 0 -10 -8 0
-15 -40 -56 -40 -41 0 5 -10 -2 -21 -16 -11 -14 -17 -18 -13 -10 4 8 -3 5 -15
-7 -11 -12 -21 -28 -21 -35 0 -9 -3 -9 -10 2 -9 13 -14 7 -11 -12 1 -8 -15
-12 -32 -9 -5 1 -6 -3 -2 -8 7 -12 -29 -33 -39 -23 -4 3 -4 -2 0 -11 4 -12 2
-17 -7 -15 -8 2 -13 -3 -11 -10 1 -8 -2 -11 -9 -6 -6 3 -22 -6 -35 -21 -13
-16 -24 -24 -24 -19 0 5 -5 1 -11 -9 -6 -9 -14 -15 -20 -12 -5 4 -9 1 -9 -5 0
-6 -5 -8 -12 -4 -9 5 -9 2 1 -9 12 -15 11 -17 -3 -17 -11 0 -16 -9 -16 -26 0
-24 -2 -25 -17 -13 -14 12 -15 12 -9 0 5 -8 3 -17 -5 -23 -11 -8 -10 -9 3 -4
10 3 18 1 18 -3 0 -10 -30 -25 -43 -22 -5 1 -6 -3 -3 -8 9 -14 -5 -42 -17 -34
-6 3 -7 1 -3 -5 4 -6 14 -9 24 -6 9 2 7 -1 -5 -7 -12 -6 -24 -18 -27 -26 -3
-8 -2 -12 2 -9 5 3 9 -1 9 -8 0 -9 -7 -12 -16 -8 -14 5 -14 4 -2 -11 12 -15
12 -17 -3 -11 -13 5 -16 -1 -16 -32 0 -57 8 -79 33 -90 12 -5 21 -17 21 -26
-1 -11 4 -14 13 -11 8 3 19 0 24 -8 7 -12 9 -12 9 0 0 11 4 10 13 -4 8 -10 18
-15 24 -12 5 3 10 0 10 -8 0 -8 -4 -12 -9 -9 -4 3 -8 0 -8 -5 0 -6 5 -11 11
-11 5 0 7 -5 4 -10 -3 -6 2 -10 12 -11 10 0 13 -3 6 -5 -13 -6 -6 -34 9 -34
13 0 58 -47 51 -54 -4 -3 3 -6 13 -6 11 0 31 -10 44 -23 14 -12 26 -21 27 -19
2 1 4 2 6 1 37 -12 188 -16 237 -6 19 4 41 9 48 11 8 1 17 7 20 12 7 9 27 16
50 17 6 0 12 3 12 7 0 3 8 6 18 7 9 1 31 7 47 14 38 15 33 14 78 23 20 5 37
12 37 17 0 5 3 8 8 8 4 -1 9 0 12 1 23 9 63 8 86 -1 16 -7 32 -12 37 -11 4 1
7 -8 7 -20 0 -12 3 -18 6 -15 4 4 14 -1 23 -11 19 -21 83 -22 109 -1 28 23 56
36 87 42 47 9 128 20 148 19 9 0 17 3 17 9 0 5 5 9 11 9 6 0 23 9 38 19 30 22
78 20 116 -5 12 -8 25 -11 28 -7 4 3 7 1 7 -5 0 -7 3 -11 8 -10 4 0 27 -8 52
-19 66 -30 83 -36 100 -37 8 -1 21 -5 28 -9 6 -5 16 -6 21 -3 5 3 14 -1 21 -9
7 -8 16 -12 21 -9 5 3 9 1 9 -4 0 -8 32 -22 43 -20 1 1 20 -8 42 -19 75 -37
240 -26 332 23 54 28 114 91 106 111 -4 9 0 11 12 7 15 -6 16 -4 5 16 -11 20
-10 22 5 16 16 -6 16 -4 4 11 -7 10 -10 15 -5 11 5 -4 17 -3 27 2 12 7 20 7
24 0 4 -7 14 -5 27 4 11 8 28 12 37 9 9 -4 13 -3 9 1 -4 5 5 19 20 33 l27 26
-25 -8 -25 -8 25 22 c14 13 19 20 13 16 -7 -3 -13 -3 -14 2 0 4 -2 24 -3 43
-2 19 -1 29 1 23 3 -7 9 -13 15 -13 7 0 7 5 -1 13 -6 8 -8 17 -4 21 4 4 -1 4
-11 0 -15 -6 -17 -4 -10 7 12 20 14 40 3 33 -5 -3 -7 -10 -4 -15 4 -5 4 -9 1
-9 -3 0 -12 13 -21 30 -9 16 -13 30 -10 30 3 0 1 10 -5 22 -11 22 -10 22 4 4
9 -11 16 -15 16 -9 0 7 -7 18 -15 27 -8 8 -15 19 -15 25 0 6 -4 11 -10 11 -5
0 -10 8 -10 18 0 14 -2 15 -10 2 -8 -12 -10 -10 -10 8 0 13 -4 20 -10 17 -6
-3 -10 -1 -10 5 0 15 -26 41 -34 33 -3 -4 -6 1 -6 10 0 10 -4 17 -8 17 -5 0
-17 7 -28 15 -16 13 -16 14 -1 9 10 -4 17 -1 17 6 0 6 -4 9 -9 6 -5 -4 -23 5
-39 19 -16 14 -35 25 -42 25 -6 0 -8 5 -5 10 3 6 -1 10 -9 10 -9 0 -16 7 -16
16 0 8 -3 13 -7 11 -5 -3 -13 1 -20 8 -10 11 -10 15 0 18 7 3 2 6 -10 6 -13 1
-23 6 -23 11 0 6 -9 10 -21 10 -11 0 -17 5 -14 10 3 6 0 10 -8 10 -8 0 -19 10
-25 23 -6 12 -11 16 -11 9 -1 -7 -17 4 -38 25 -20 21 -32 31 -27 23 6 -11 3
-10 -7 2 -9 9 -23 18 -30 20 -20 5 -38 22 -31 32 3 5 0 6 -6 3 -15 -10 -42 3
-42 19 0 8 -6 11 -17 7 -11 -4 -14 -3 -9 5 4 8 0 12 -11 12 -10 0 -25 9 -33
20 -8 11 -17 15 -20 10 -3 -5 -11 0 -19 11 -7 12 -8 18 -2 15 6 -4 9 -1 5 7
-9 24 25 28 46 7 11 -11 20 -17 20 -12 0 4 4 2 8 -5 4 -7 29 -13 55 -15 26 -2
47 -6 47 -10 0 -5 5 -8 10 -8 6 0 10 6 10 13 0 7 11 25 25 40 14 15 22 27 18
27 -4 0 4 8 17 17 14 10 28 17 33 15 4 -1 7 2 7 8 0 5 7 10 16 10 9 0 27 11
40 25 13 14 20 25 17 25 -3 0 7 12 23 27 16 15 28 31 26 35 -2 9 0 10 52 13
21 1 42 8 47 16 5 8 9 10 9 6 0 -5 14 0 31 10 34 20 59 60 51 82 -3 9 0 11 8
6 9 -6 9 -3 1 12 -6 11 -7 23 -3 27 3 4 -1 4 -11 0 -10 -3 -17 -1 -17 6 0 6
-4 8 -10 5 -6 -3 -10 -1 -10 4 0 6 -6 11 -14 11 -12 0 -12 7 -1 49 7 28 10 52
7 55 -3 3 -1 6 4 6 6 0 10 18 9 40 -1 22 2 40 6 40 4 0 6 11 4 25 -1 14 2 25
7 25 5 0 4 9 -2 20 -6 11 -7 20 -2 20 12 0 2 74 -12 82 -7 5 -7 8 3 8 11 0 11
3 0 17 -8 9 -13 18 -11 20 1 1 2 19 2 39 0 24 -4 33 -12 28 -8 -5 -9 -2 -5 9
3 10 2 17 -4 17 -6 0 -8 4 -4 9 3 5 -1 15 -8 23 -7 7 -14 15 -14 18 -1 19 -16
50 -24 50 -5 0 -9 9 -9 20 0 11 -5 20 -10 20 -6 0 -9 5 -8 12 4 16 50 64 60
60 4 -1 8 2 8 6 0 5 7 17 16 28 8 10 12 13 8 5 -5 -9 -3 -12 4 -7 7 4 12 13
12 19 1 7 14 23 30 37 17 13 30 30 30 37 0 7 5 13 11 13 5 0 7 5 4 10 -3 6 1
13 9 16 9 3 14 10 11 14 -3 4 2 11 11 14 9 4 14 9 11 13 -4 3 -2 13 5 20 21
26 -15 36 -167 49 -27 2 -81 7 -120 10 -150 13 -380 1 -417 -22 -9 -6 -47 -15
-65 -16 -7 -1 -13 -4 -13 -8 0 -4 -28 -6 -62 -5 -35 1 -63 3 -63 5 0 6 -67 5
-71 -2 -3 -4 -15 -4 -27 0 -19 7 -172 8 -187 2 -7 -3 -69 -1 -107 3 -18 2 -33
0 -33 -3 0 -14 -145 -3 -174 13 -16 9 -33 14 -38 11 -4 -3 -8 -1 -8 4 0 5 -6
9 -12 10 -7 0 -40 8 -73 18 -33 9 -78 18 -100 20 -22 1 -40 3 -40 5 0 3 -35 6
-140 14 -55 3 -117 8 -137 10 -20 2 -38 1 -40 -1z m-348 -2044 c-6 -11 -13
-20 -16 -20 -2 0 0 9 6 20 6 11 13 20 16 20 2 0 0 -9 -6 -20z"/>
<path d="M446 933 c-6 -14 -5 -15 5 -6 7 7 10 15 7 18 -3 3 -9 -2 -12 -12z"/>
</g>
</svg>
